<?xml version="1.0" encoding="utf-8"?>
<!DOCTYPE svg PUBLIC "-//W3C//DTD SVG 20010904//EN" "http://www.w3.org/TR/2001/REC-SVG-20010904/DTD/svg10.dtd">
<svg version="1.0" xmlns="http://www.w3.org/2000/svg" width="1280px" height="720px" viewBox="0 0 1280 720" preserveAspectRatio="xMidYMid meet">
 <g fill="#000000">
  <path d="M271.7 571.4 c-2.3 -1.3 -2.6 -1.8 -1.6 -3 1 -1.3 1.4 -1.3 2.8 0 4.1 3.6 13.3 2.7 14.6 -1.5 1.1 -3.4 -1.1 -5.4 -7.3 -6.7 -8.3 -1.7 -10.8 -4.2 -10.3 -10 0 -0.7 1.4 -2.6 3.1 -4.3 2.9 -3.1 3.1 -3.1 9.4 -2.4 4.4 0.4 6.6 1.1 7 2.2 0.9 2.2 -0.3 3.6 -1.9 2.3 -0.7 -0.6 -3.6 -1.2 -6.4 -1.3 -5.7 -0.2 -7.3 1 -6.9 5.2 0.3 1.9 1.7 2.9 8.3 5.5 7.8 3 8 3.2 8.3 6.7 0.2 2.4 -0.4 4.3 -1.8 6.2 -1.9 2.4 -2.8 2.7 -8.3 2.7 -3.6 -0.1 -7.4 -0.7 -9 -1.6z"/>
  <path d="M319.9 571.5 c-3 -1.6 -8.9 -10 -8.9 -12.5 0 -2.1 2.7 -7.9 4.9 -10.4 3.3 -3.8 8.9 -5.8 14.4 -5.1 5.5 0.8 8.7 2.3 8.7 4.1 0 0.7 0.6 1.4 1.3 1.7 0.7 0.3 1.9 3 2.7 6.1 1.5 6.2 1.1 7.4 -3.9 13.6 -2.7 3.2 -3.3 3.4 -9.7 3.7 -4.8 0.2 -7.7 -0.1 -9.5 -1.2z m12.3 -1.4 c3.7 -1.4 7.7 -6.1 8.4 -9.8 1 -5.3 -1.6 -9.8 -7 -12.3 -5.6 -2.5 -6.6 -2.5 -12.1 0 -5.3 2.4 -6.5 4.4 -6.5 10.7 0 5.8 0.3 6.2 6 9.6 4.8 2.8 7.4 3.3 11.2 1.8z"/>
  <path d="M366.3 558.5 c0.1 -14.5 0.1 -14.5 9.9 -14.5 7.4 0 9.8 0.3 9.8 1.3 0 1 -1.8 1.3 -6.7 1.3 -9.4 -0.1 -10.3 0.4 -10.3 5.8 0 4.4 0 4.4 4.3 5 2.3 0.4 5.4 0.8 7 0.9 4.5 0.3 3 1.7 -2 1.8 -9.4 0.2 -8.8 -0.3 -9.1 6.7 -0.2 4.5 -0.7 6.2 -1.7 6.2 -1.1 0 -1.3 -2.8 -1.2 -14.5z"/>
  <path d="M414.8 568.8 c-0.3 -2.4 -0.4 -8.4 -0.2 -13.4 0.3 -9.1 0.3 -9.1 -4.7 -8.6 -3.1 0.3 -4.9 0.1 -4.9 -0.6 0 -1.1 3.7 -1.7 15.3 -2.6 6.2 -0.5 6.7 -0.4 6.7 1.5 0 1.8 -0.5 2 -4.7 1.7 -4.7 -0.3 -4.7 -0.3 -5.4 3.5 -0.3 2 -0.3 5.3 0 7.3 0.8 4.5 0.2 15.4 -0.9 15.4 -0.4 0 -1 -1.9 -1.2 -4.2z"/>
  <path d="M454.7 569.3 c-0.9 -2.1 -2.1 -6.2 -2.7 -9 -0.7 -2.9 -1.6 -5.3 -2.1 -5.3 -0.7 0 -3.9 -9 -3.9 -11.2 0 -0.4 0.8 -0.8 1.8 -0.8 1.5 0 2.2 1.3 3.2 5.8 2.3 9.9 9 20.9 9 14.7 0 -0.8 1.1 -3.9 2.5 -6.9 1.4 -3 2.5 -6.6 2.5 -8 0 -4.3 1 -5.7 3.1 -4.5 1 0.5 1.9 1.6 1.9 2.4 0 0.8 0.9 3.4 1.9 5.7 1.1 2.4 2.5 6.4 3.2 9.1 0.6 2.6 1.7 4.7 2.3 4.7 1.4 0 5.6 -9.1 5.6 -12.1 0 -2.8 4 -9.9 5.6 -9.9 1.4 0 -1 9.1 -3.8 14.5 -0.9 1.7 -1.9 4.6 -2.3 6.5 -0.9 4.3 -3.3 8 -5 8 -0.8 0 -2.1 -2.4 -3.1 -5.2 -0.9 -2.9 -2 -5.7 -2.4 -6.3 -0.4 -0.5 -1 -2.7 -1.4 -4.7 -0.5 -2.8 -1.2 -3.8 -2.5 -3.8 -1.4 0 -2.4 1.7 -4.1 7.3 -1.3 3.9 -2.7 7.6 -3.2 8.2 -0.4 0.5 -0.8 1.7 -0.8 2.7 0 3.4 -3.6 2 -5.3 -1.9z"/>
  <path d="M506.2 572.3 c0.2 -0.5 1.4 -3 2.7 -5.8 3.3 -7.2 4.3 -9.1 7.9 -16.2 0.7 -1.3 1.2 -3.4 1.2 -4.8 0 -2.1 0.5 -2.5 2.9 -2.5 2.5 0 3.1 0.5 3.6 3 0.4 1.7 1.1 3 1.6 3 0.5 0 0.9 0.9 0.9 2 0 2.1 1 4.2 4.7 10 2.5 4 4.6 12 3.1 12 -0.5 0 -1.7 -1.3 -2.6 -3 -1.7 -3 -1.7 -3 -11.3 -3 -9.6 0 -9.6 0 -10.2 3 -0.5 2.2 -1.2 3 -2.8 3 -1.1 0 -1.9 -0.3 -1.7 -0.7z m22.3 -10.3 c0.9 -1.5 -5.8 -13 -7.6 -13 -1.1 0 -2.4 2.1 -4 6.3 -1.3 3.4 -2.5 6.5 -2.7 7 -0.5 1.1 13.6 0.9 14.3 -0.3z"/>
  <path d="M557.8 560 c-0.1 -7.1 -0.2 -13.8 -0.2 -14.7 -0.1 -1.8 1.4 -1.9 16.9 -1.4 1.1 0.1 3.1 1.7 4.4 3.6 2.1 3.1 2.3 4.1 1.5 7.8 -0.7 3.1 -1.6 4.5 -3.7 5.5 -2.2 1.1 -2.5 1.6 -1.7 3.2 0.6 1 1.4 2.2 2 2.5 0.5 0.3 1.9 1.9 3 3.5 2.1 3 2.1 3 -0.4 3 -2 0 -3.2 -1.2 -5.9 -5.7 -3.5 -6 -4.1 -6.3 -10.4 -4.8 -2 0.5 -2.3 1.2 -2.3 5.5 0 3.8 -0.4 5 -1.5 5 -1.2 0 -1.5 -2.2 -1.7 -13z m18.4 -1.7 c1.1 -1 1.8 -3 1.8 -5.3 0 -4.6 -2.3 -6 -10.5 -6.3 -6 -0.2 -6 -0.2 -6.3 6.6 -0.3 6.7 -0.3 6.7 6.4 6.7 4.9 0 7.3 -0.5 8.6 -1.7z"/>
  <path d="M605 558.5 c0 -16.8 -1 -15.5 12.3 -15.2 6.9 0.1 7.7 0.4 7.7 2.1 0 1.8 -0.6 1.8 -7.9 1.2 -9 -0.7 -9.7 -0.3 -10.3 5.9 -0.3 4 -0.3 4 8.5 4 6 0 8.7 0.3 8.7 1.2 0 0.7 -2.6 1.4 -6.7 1.8 -3.8 0.3 -7.5 0.7 -8.3 0.8 -1.1 0.2 -1.5 1.5 -1.5 5.2 0 5 0 5 8.8 4.6 7.5 -0.3 8.7 -0.1 8.7 1.3 0 1.4 -1.5 1.6 -10 1.6 -10 0 -10 0 -10 -14.5z"/>
  <path d="M674 559.3 c0 -7.6 0.4 -14.3 0.8 -14.9 0.8 -1.4 20.2 -0.6 20.2 0.7 0 1.5 -4.9 2.2 -11 1.6 -5.8 -0.5 -5.8 -0.5 -6.3 3.5 -0.9 6.6 -0.4 7 7.6 6.6 4.6 -0.2 7.2 0.1 7.4 0.8 0.6 1.7 -3.5 2.4 -9.3 1.8 -5.1 -0.6 -5.1 -0.6 -5.8 3.4 -0.3 2.2 -0.3 4.7 0 5.5 0.7 2 4.9 2.7 11.7 2 4.9 -0.5 5.7 -0.3 5.7 1.1 0 1.4 -1.4 1.6 -10.5 1.6 -10.5 0 -10.5 0 -10.5 -13.7z"/>
  <path d="M718.7 572.3 c-0.2 -0.5 -0.3 -7.1 -0.3 -14.8 0.1 -12.3 0.3 -14 1.8 -14.3 1.1 -0.2 2.6 1.2 4.4 4 1.5 2.4 5 7.1 7.8 10.4 2.8 3.4 5.6 7 6.2 7.9 0.6 1.2 1.6 1.6 2.7 1.2 1.5 -0.5 1.7 -2.3 1.7 -12.2 0 -8.5 0.3 -11.5 1.3 -11.5 0.9 0 1.2 3.8 1.4 15 0.2 15 0.2 15 -2.2 15 -1.6 0 -3.1 -1 -4.2 -2.7 -1 -1.6 -2 -3 -2.3 -3.3 -0.3 -0.3 -2.2 -2.6 -4.3 -5.2 -2.1 -2.6 -4.3 -5.3 -5 -6.1 -0.7 -0.7 -1.7 -2.2 -2.3 -3.2 -0.6 -1.1 -1.8 -2.1 -2.6 -2.3 -2.1 -0.4 -2.8 4.5 -2.1 14.7 0.4 5.5 0.2 8.1 -0.5 8.1 -0.6 0 -1.3 -0.3 -1.5 -0.7z"/>
  <path d="M773.9 569.3 c-4.5 -4.8 -5.9 -7.4 -5.9 -11.1 0 -3.7 1.9 -9.2 3.2 -9.2 0.5 0 2.3 -1.3 3.8 -3 2.5 -2.7 3.4 -3 8.7 -3 5.7 0.1 9.3 1.5 9.3 3.9 0 0.6 -0.4 1.1 -1 1.1 -0.5 0 -1 -0.4 -1 -1 0 -1.9 -9.7 -1.1 -13.5 1.1 -4 2.4 -5.5 5.2 -5.5 10.2 0 5.6 1.1 7.7 5.1 9.7 7.5 3.9 14.7 2 16.2 -4.3 1.2 -5 2.7 -4.7 2.7 0.6 0 6.4 -2.3 8.1 -11.3 8.5 -7.2 0.3 -7.2 0.3 -10.8 -3.5z"/>
  <path d="M819.1 558 c0 -12.6 0.2 -15 1.4 -15 1.3 0 1.5 2.4 1.5 15 0 12.2 -0.3 15 -1.4 15 -1.1 0 -1.4 -2.8 -1.5 -15z"/>
  <path d="M846.6 566.9 c-0.3 -3.4 -0.6 -10 -0.6 -14.6 0 -6.8 0.3 -8.5 1.6 -9 1.1 -0.4 2.2 0.1 3 1.3 2 2.8 10.5 12.2 13.6 15.2 1.5 1.4 3 3.4 3.4 4.4 0.3 1.1 1.3 1.8 2.2 1.6 1.5 -0.3 1.7 -1.9 1.7 -11.2 0 -8 0.3 -11 1.3 -11.4 1 -0.3 1.2 2.6 0.8 14.5 -0.3 8.1 -0.5 14.9 -0.5 15.1 -0.1 0.1 -0.7 0.2 -1.5 0.2 -0.7 0 -2.8 -1.9 -4.7 -4.1 -1.9 -2.3 -4.9 -5.8 -6.6 -7.9 -1.8 -2.1 -3.3 -4 -3.3 -4.4 0 -1.2 -5.9 -7.1 -6.5 -6.5 -0.3 0.4 -0.6 5.6 -0.6 11.8 0 8.4 -0.3 11.1 -1.3 11.1 -0.9 0 -1.5 -2.1 -2 -6.1z"/>
  <path d="M899 558.6 c0 -14.3 0 -14.3 7.8 -14.9 8 -0.6 12.2 -0.1 12.2 1.4 0 0.9 -2.8 1.2 -12 1.3 -4.5 0.1 -4.5 0.1 -4.5 5.1 0 5 0 5 7.3 5.3 5.4 0.2 7.2 0.6 7.2 1.7 0 1.2 -1.4 1.4 -7 1 -3.8 -0.2 -7.2 0 -7.5 0.5 -1.2 1.9 -0.8 9.2 0.6 10.1 0.8 0.6 4.7 0.7 9.2 0.4 6.6 -0.5 7.7 -0.4 7.7 0.9 0 1.4 -1.6 1.6 -10.5 1.6 -10.5 0 -10.5 0 -10.5 -14.4z"/>
  <path d="M942.9 570.8 c-0.7 -12.6 -0.2 -26.8 0.8 -27.2 0.7 -0.3 5.3 -0.5 10.3 -0.5 8.2 0 9 0.2 9 1.9 0 1.7 -0.9 2 -8.7 2.2 -8.8 0.3 -8.8 0.3 -9.1 5 -0.3 4.7 -0.3 4.7 8.2 4.4 6.8 -0.3 8.6 0 8.6 1 0 1 -1.4 1.4 -4.7 1.4 -2.7 0 -6.5 0.3 -8.5 0.6 -3.8 0.7 -3.8 0.7 -3.8 5.5 0 4.9 0 4.9 9 4.9 7.3 0 9 0.3 9 1.5 0 1.2 -1.8 1.5 -10 1.5 -9.7 0 -10 -0.1 -10.1 -2.2z"/>
  <path d="M986.9 572.4 c-0.4 -0.9 -0.4 -11 -0.1 -23.3 0.2 -6.3 0.2 -6.3 8 -6 6.8 0.3 8.4 0.8 11.5 3.2 3.1 2.4 3.7 3.4 3.7 6.7 0 3.2 -0.6 4.3 -3.5 6.7 -3.9 3.1 -3.9 2.8 2.1 11.1 1.6 2.1 1.6 2.2 -0.7 2.2 -1.8 -0.1 -3.3 -1.5 -5.9 -5.5 -3.4 -5.4 -3.6 -5.5 -8.2 -5.5 -4.8 0 -4.8 0 -4.8 4.3 0 4 -1.3 7.8 -2.1 6.1z m14.9 -13.5 c3.3 -1.1 4.9 -5 3.7 -8.9 -0.8 -2.4 -6.5 -4.3 -12 -3.8 -4 0.3 -4 0.3 -4.3 7.1 -0.3 6.7 -0.3 6.7 4.6 6.7 2.7 0 6.3 -0.5 8 -1.1z"/>
  <path d="M730 464.5 c0 -0.3 0.2 -0.5 0.5 -0.5 0.3 0 0.5 0.2 0.5 0.5 0 0.3 -0.2 0.5 -0.5 0.5 -0.3 0 -0.5 -0.2 -0.5 -0.5z"/>
  <path d="M725.4 460.8 c-0.4 -0.7 -0.3 -0.8 0.4 -0.4 0.7 0.4 1.2 0.9 1.2 1.2 0 0.8 -0.9 0.4 -1.6 -0.8z"/>
  <path d="M719.2 457 c-2.3 -1.6 -4.6 -3.8 -5.1 -4.9 -0.6 -1 -3.1 -2.9 -5.7 -4.1 -3.2 -1.6 -4.2 -2.6 -3.5 -3.3 1.2 -1.2 8.1 2.1 8.1 3.9 0 0.7 2.5 3.5 5.6 6.3 6.3 5.8 6.5 6.4 0.6 2.1z"/>
  <path d="M698.1 442.3 c-1.9 -1.5 -4.2 -2.8 -5 -3 -0.9 -0.1 -1.7 -0.7 -1.9 -1.2 -0.2 -0.6 -1.2 -1.1 -2.3 -1.1 -1 0 -1.9 -0.5 -1.9 -1.1 0 -0.5 -0.4 -0.8 -1 -0.4 -0.5 0.3 -1.8 -0.2 -2.8 -1.2 -7.4 -7.2 -12.5 -10.4 -18.7 -11.9 -1.6 -0.3 -2.4 -0.9 -1.7 -1.1 1.8 -0.7 10.2 1.7 10.2 2.8 0 0.5 0.9 0.9 2 0.9 1.1 0 2 0.3 2 0.8 0 0.4 1.5 1.7 3.3 2.8 1.7 1.2 7.5 4.9 12.7 8.4 8.7 5.7 11.5 8 9.3 8 -0.4 0 -2.3 -1.2 -4.2 -2.7z"/>
  <path d="M556.9 433.6 c-2 -0.6 -6.3 -3.3 -9.5 -6 -9 -7.6 -9.4 -8 -14.4 -18.7 -0.4 -0.8 -0.6 -4.5 -0.3 -8.1 0.2 -4.1 0 -6.9 -0.7 -7.3 -0.6 -0.4 -1 -4.8 -0.9 -11.5 0 -6 -0.2 -11.4 -0.6 -11.9 -0.3 -0.6 -0.1 -1.1 0.4 -1.1 0.6 0 1.1 -0.9 1.1 -2 0 -1.5 -0.7 -2 -2.8 -2 -1.7 0 -3.7 -1.1 -5.5 -3 -3.3 -3.4 -4.3 -3.6 -6.8 -1.4 -2 1.8 -5.9 1.1 -5.9 -1.2 0 -0.8 -0.9 -1.4 -1.9 -1.4 -1.5 0 -2.1 0.8 -2.3 3.3 -0.2 2.5 -0.8 3.3 -2.7 3.5 -1.6 0.3 -3 -0.3 -4 -1.6 -1.9 -2.4 -9.1 -4.7 -9.2 -2.9 0 0.7 -0.4 0.3 -0.9 -0.8 -0.6 -1.5 -0.3 -2.5 1.2 -3.7 1.1 -1 1.7 -2.2 1.3 -2.8 -0.4 -0.6 0.4 -1 1.9 -1 1.4 0 2.8 0.5 3.1 1 0.9 1.5 4.5 1.2 5.1 -0.5 0.8 -1.9 4.1 -1.9 5.9 -0.1 0.8 0.8 4.3 1.7 7.7 2.1 3.5 0.4 8 1.6 10 2.6 4.9 2.5 7.8 2.5 7.8 0 0 -1.1 0.5 -2.3 1 -2.6 0.6 -0.3 1 -2.1 1 -4 0 -3.6 1.2 -10.1 3.7 -20.4 0.9 -3.5 1.7 -7.1 1.8 -8 0.4 -4 1.9 -8.6 5.1 -15.6 1.8 -4.2 5.4 -15.2 5.4 -16.8 0 -1.2 5.2 -11.6 13.3 -26.7 1.4 -2.5 3.2 -7.3 4.2 -10.7 0.9 -3.4 2.4 -6.4 3.2 -6.8 1.4 -0.5 1.4 -0.3 0.1 1.7 -0.9 1.3 -2.1 4.8 -2.7 7.8 -0.6 3 -2.3 7.2 -3.6 9.2 -1.4 2.1 -2.5 4.2 -2.5 4.8 0 0.5 -0.4 1 -1 1 -0.5 0 -1.5 1.9 -2.2 4.3 -0.6 2.3 -2 5.4 -3 6.8 -1.1 1.4 -2 3.6 -2.2 5 -0.2 1.3 -1 4.1 -1.9 6.3 -1 2.1 -1.7 4.7 -1.7 5.7 0 1.1 -1.9 6.3 -4.2 11.7 -2.3 5.3 -4.2 11.5 -4.3 13.7 -0.1 2.2 -1.2 6.2 -2.4 8.8 -1.2 2.7 -2 5.5 -1.7 6.2 0.2 0.7 0 1.7 -0.5 2.2 -0.5 0.5 -1.1 3.7 -1.3 7 -0.2 3.4 -0.7 7.1 -1.1 8.3 -0.5 1.6 -0.2 2.3 1.4 2.7 1.2 0.3 2.1 0.9 2.1 1.2 0 0.4 1 0.7 2.3 0.6 1.2 -0.1 2.7 0.1 3.2 0.4 0.6 0.4 2.8 1.3 5 2 2.2 0.8 4.2 1.7 4.5 2 1.3 1.6 9.1 5.1 11.3 5.1 1.4 0 3.3 0.7 4.2 1.6 0.9 0.9 1.8 1.4 2.1 1.1 0.9 -0.8 9.6 3.2 10.9 5 0.6 0.8 2.3 1.6 3.7 1.6 1.8 0 2.5 0.4 2.1 1.3 -0.5 1.3 0.9 1.8 4.5 1.7 0.6 -0.1 1.2 0.4 1.2 1.1 0 0.6 0.7 0.2 1.6 -0.9 1.3 -1.7 1.6 -1.8 2.4 -0.5 0.5 0.8 1 2.3 1 3.3 0 1 0.4 1.6 0.9 1.3 1.2 -0.8 10.4 2.6 11.4 4.2 0.4 0.6 1.3 1.2 1.9 1.2 0.7 0 2.2 0.9 3.4 2.1 2.1 2 2.1 2 6.7 -1.1 2.5 -1.7 6.7 -5.5 9.4 -8.6 2.6 -3.1 7.3 -8.4 10.3 -11.7 3.1 -3.4 6.8 -7.8 8.2 -9.8 1.5 -2 4.5 -5.4 6.7 -7.5 2.3 -2.1 4.4 -4.6 4.7 -5.6 0.3 -1 1.9 -3.3 3.5 -5 1.6 -1.8 2.9 -3.8 2.9 -4.4 0 -0.6 0.9 -1.4 2.1 -1.7 2 -0.5 2 -0.5 0.3 2.1 -1 1.5 -2.7 3.5 -3.9 4.4 -1.2 0.9 -3.2 3.8 -4.6 6.4 -1.3 2.6 -3.7 6 -5.4 7.5 -1.6 1.5 -4.6 5.2 -6.5 8.3 -1.9 3.1 -4.3 5.8 -5.2 6.2 -1 0.3 -1.8 1.2 -1.8 2 0 0.8 -0.4 1.4 -0.8 1.4 -0.4 0 -1.5 1.2 -2.4 2.8 -0.9 1.5 -2.7 3.9 -4 5.3 -1.3 1.4 -3.3 3.7 -4.3 5 -1.1 1.4 -3.2 3.3 -4.7 4.3 -3.1 2 -3.6 3.6 -1.3 3.6 0.8 0 1.5 0.7 1.5 1.5 0 0.8 0.8 1.5 1.9 1.5 1 0 2.4 0.7 3.1 1.5 1.6 1.9 6.8 4.5 9 4.5 1 0 2.3 0.6 2.9 1.4 0.7 0.8 2.2 1.7 3.4 2 1.2 0.3 3.2 2.1 4.5 4 1.5 2.2 3.4 3.6 5.5 4.1 1.8 0.4 2.6 0.9 1.9 1.2 -2.1 0.8 -8.9 -2.7 -10.7 -5.3 -0.9 -1.3 -2.4 -2.4 -3.5 -2.4 -1 0 -2.6 -0.8 -3.6 -1.7 -1.6 -1.6 -1.8 -1.6 -3.4 0.5 -1 1.2 -2.3 2.2 -2.8 2.2 -1.8 0 -4.2 -3.1 -4.2 -5.4 0 -1.8 -0.9 -2.5 -4.2 -3.5 -2.4 -0.7 -4.9 -1.8 -5.7 -2.4 -1 -0.9 -1.7 -0.7 -2.7 0.8 -5.2 7.3 -11.2 12.3 -12.8 10.8 -0.8 -0.9 -5.6 1.8 -5.6 3.1 -0.1 1.8 -4.5 4.5 -8.9 5.5 -3.9 0.9 -8 3.4 -12.5 7.9 -1.5 1.4 -3.5 2.2 -5.8 2.2 -1.9 0 -5.7 0.7 -8.4 1.5 -2.7 0.8 -5.1 1.4 -5.4 1.4 -0.3 -0.1 -2.1 -0.6 -4.1 -1.3z m18.6 -6.4 c2.8 -0.8 6.9 -2.8 9.3 -4.4 2.4 -1.5 5.2 -2.8 6.3 -2.8 1.1 0 3 -0.5 4.1 -1.1 2.6 -1.4 6.7 -6 6.8 -7.5 0 -0.6 1.4 -1.7 3 -2.4 1.7 -0.7 3 -1.6 3 -2.1 0 -0.4 0.9 -1.1 2.1 -1.4 2.7 -0.9 7.8 -6.6 7.2 -8.1 -0.2 -0.6 -2.2 -2.1 -4.5 -3.4 -3.2 -1.8 -4.5 -2.1 -5.8 -1.2 -1.3 0.8 -2.2 0.7 -3.6 -0.2 -1.1 -0.7 -3.7 -1.9 -5.9 -2.6 -2.2 -0.7 -4.6 -1.9 -5.3 -2.7 -0.8 -0.7 -4.1 -3.3 -7.4 -5.6 -3.3 -2.3 -6.9 -4.8 -7.9 -5.5 -1 -0.8 -3.4 -1.4 -5.4 -1.4 -2.1 0 -6.7 -1.5 -10.8 -3.5 -4.8 -2.3 -8.9 -3.6 -12.2 -3.8 -2.7 -0.1 -6.9 -0.6 -9.2 -1 -4.2 -0.7 -4.2 -0.7 -4.9 3 -1 5.4 0.4 25.2 2.1 30 0.8 2.2 1.4 5.8 1.5 8.1 0 4.6 4.2 11.4 8.2 13.5 1.3 0.6 3.3 2.1 4.5 3.2 4.7 4.2 16 5.6 24.8 2.9z m-80.4 -69.7 c-0.1 -1.5 -2.4 -1.2 -2.9 0.3 -0.3 0.9 0.2 1.3 1.2 1 1 -0.1 1.7 -0.7 1.7 -1.3z"/>
  <path d="M75 420 c-1.4 -1.1 -3.3 -2 -4.2 -2 -3.4 0 -4.8 -1.3 -5.4 -4.8 -0.4 -2.1 -1.5 -4.9 -2.6 -6.4 -1 -1.5 -3 -5.3 -4.5 -8.4 -2.2 -4.9 -2.6 -7.2 -2.6 -14.8 0 -15.8 2.9 -36 6.7 -47.1 1.4 -3.8 2.8 -8.3 3.1 -10 0.9 -4.2 0.9 -4.3 4.2 -11.5 1.7 -3.6 3.8 -8.7 4.7 -11.3 0.9 -2.6 2.6 -5.8 3.7 -7 1.2 -1.2 3.9 -5.9 6.1 -10.4 2.1 -4.5 4.5 -8.7 5.3 -9.3 1.9 -1.6 1.9 -3 0 -3 -0.8 0 -1.5 0.3 -1.5 0.8 0 0.7 -2.3 1.6 -15 5.8 -4.1 1.3 -7.9 3 -8.5 3.7 -0.5 0.7 -3.7 2.4 -7 3.7 -3.3 1.3 -6.4 2.7 -6.9 3.2 -0.6 0.4 -1.8 0.8 -2.8 0.8 -1.9 0 -13.9 5.6 -14.8 7 -1.3 1.7 -6.9 4.2 -8.4 3.7 -2.3 -0.9 -2.5 -7.5 -0.3 -9 0.7 -0.4 3 -1.2 5.2 -1.8 4.5 -1.2 13.4 -4.5 18.3 -6.7 1.8 -0.8 3.5 -1.2 3.9 -0.8 0.3 0.3 -1.1 1.3 -3.1 2.1 -4.7 2 -3.8 3.7 1.2 2.3 5 -1.4 8.8 -3.4 12.4 -6.6 1.6 -1.5 3.7 -2.7 4.6 -2.8 2.4 -0.1 5.9 -1.3 12.2 -4.1 12.1 -5.3 14 -6.6 18.2 -12.2 5 -6.7 6.8 -8.6 6.8 -7.3 0 0.6 -1.6 2.9 -3.5 5.3 -2 2.3 -3.2 4.6 -2.7 5.1 1.1 1.1 7.3 -1.1 9.2 -3.4 1 -1.2 3 -1.9 6 -1.9 2.5 -0.1 5.4 -0.7 6.5 -1.4 1.1 -0.7 3.6 -1.6 5.5 -2 1.9 -0.4 5.5 -1.7 8 -2.8 9.4 -4.1 10.6 -4.6 14.5 -5.9 2.2 -0.7 4.5 -1.9 5 -2.5 0.6 -0.7 3.2 -1.5 5.9 -1.8 6.3 -0.8 6.4 -0.8 8.8 -6.4 3 -6.9 3 -7.9 0 -9.4 -1.5 -0.8 -5.6 -3 -9.2 -4.9 -3.6 -2 -8.6 -4.1 -11 -4.8 -2.5 -0.6 -6.7 -1.9 -9.3 -2.7 -4.8 -1.6 -4.8 -1.6 -8.3 1.8 -1.8 1.8 -3.7 4.2 -4 5.3 -0.4 1.2 -2.4 4.1 -4.4 6.6 -2 2.5 -4.9 6.6 -6.3 9.1 -1.4 2.5 -4 6 -5.6 7.8 -1.7 1.8 -3.1 3.9 -3.1 4.6 0 0.8 -0.5 1.7 -1.1 2 -1.8 1.2 1.8 -6 5.5 -10.9 2 -2.6 3.6 -5.1 3.6 -5.6 0 -0.5 1.5 -3 3.3 -5.5 5.2 -7.5 9.6 -14.9 9.7 -16.2 0 -0.8 -1.3 -1.3 -3.3 -1.3 -1.8 0 -5.6 -0.6 -8.3 -1.4 -2.7 -0.8 -8.5 -1.7 -12.9 -1.9 -5.2 -0.2 -9.6 -1.1 -12.5 -2.4 -2.5 -1.1 -6.2 -2.1 -8.2 -2.1 -6.4 -0.2 -13.4 -3.9 -17.8 -9.5 -4.3 -5.3 -4.8 -7.4 -2.7 -11 0.7 -1.2 1.3 -3.3 1.2 -4.7 0 -3.2 9.6 -13 14.5 -14.9 7 -2.6 12.8 -5.8 16 -8.6 1.4 -1.3 4.1 -2.6 6 -3 1.9 -0.4 4.4 -1.6 5.5 -2.6 1.2 -1 4.1 -2.1 6.5 -2.4 2.5 -0.3 6 -1.5 7.9 -2.6 4.6 -2.7 13.2 -5.9 14.2 -5.3 0.4 0.2 3 -0.9 5.7 -2.6 3.6 -2.2 6 -2.9 9.3 -2.8 2.4 0 5.8 -0.5 7.4 -1.2 1.7 -0.7 4.9 -1.2 7.2 -1.1 2.3 0.1 4.4 -0.3 4.8 -0.9 0.3 -0.6 1 -0.8 1.5 -0.5 1.1 0.7 12.2 -1.5 13.6 -2.6 0.6 -0.5 2.7 -0.9 4.5 -0.8 1.9 0 4.9 -0.3 6.8 -0.7 1.9 -0.4 6.5 -0.1 10.3 0.6 5.3 0.9 7.2 0.9 8.3 0 0.8 -0.7 3.1 -1.2 5.2 -1.1 16.1 0.4 34.5 2.6 39 4.8 1.9 0.9 3.2 1.8 2.9 2 -0.3 0.3 -2 -0.3 -3.8 -1.2 -2.7 -1.4 -7.2 -1.8 -26.8 -2.2 -12.9 -0.3 -25.5 -0.4 -28 -0.3 -2.5 0.2 -5.3 0.3 -6.2 0.4 -1 0 -1.8 0.5 -1.8 1.1 0 0.5 -0.4 0.4 -0.9 -0.4 -0.8 -1.2 -1.7 -1.2 -5.8 -0.2 -2.6 0.7 -5.9 1.7 -7.3 2.3 -2.4 1 -4.3 1.2 -16.8 2.2 -3 0.2 -5.9 0.9 -6.5 1.5 -0.6 0.6 -1.6 1.1 -2.3 1.1 -0.7 0 -1.4 0.4 -1.6 0.9 -0.3 0.8 -15.6 5.6 -21.3 6.7 -1.6 0.3 -4.3 1.2 -6 1.9 -3.6 1.6 -7.4 2.8 -9.6 3 -1 0.1 -2.4 0.9 -3.3 1.8 -0.9 0.9 -2.3 1.4 -3 1.1 -0.7 -0.3 -1.6 0.2 -1.9 1 -0.4 0.9 -1.3 1.6 -2.2 1.6 -0.9 0 -5.7 2.1 -10.8 4.8 -5 2.6 -11.2 5.5 -13.7 6.5 -2.5 0.9 -6.3 3.5 -8.5 5.8 -2.2 2.2 -5 5 -6.2 6.1 -1.6 1.5 -2 2.6 -1.4 4.2 0.5 1.1 0.6 2.7 0.4 3.3 -0.3 0.7 1.3 2 3.6 2.9 2.6 1 4.1 2.3 4.1 3.4 0 2.2 3.1 5 5.6 5 1 0 4.6 1.2 7.9 2.6 3.3 1.4 8.7 2.7 12 3 3.3 0.3 6.9 1.1 8 1.8 2.9 1.8 11.4 3.8 13.5 3.1 1 -0.3 3.5 0.1 5.5 1 6.3 2.6 6.9 2.2 11.6 -7 2.7 -5.3 5.1 -8.7 6.4 -9.1 4.4 -1.4 11.7 -9.9 17.4 -20.3 0.8 -1.4 2.2 -3.2 3.2 -3.9 1.9 -1.3 4.9 -6.7 4.9 -8.8 0 -1.9 6.8 -8.4 8.8 -8.4 2.2 0 5.2 -3 5.2 -5.2 0 -1.1 0.6 -1.4 2 -1.1 2.4 0.6 2.5 2.9 0.4 7.4 -2.4 4.9 -4.4 6.9 -6.9 6.9 -2 0 -5.5 2.7 -5.5 4.2 0 0.4 -1.7 2.4 -3.7 4.6 -2.1 2.2 -6 6.7 -8.8 10.1 -2.7 3.4 -5.8 7.2 -6.9 8.4 -1 1.2 -2.5 3.7 -3.3 5.5 -0.7 1.8 -2.4 3.7 -3.6 4.1 -1.2 0.5 -3.2 1.9 -4.3 3.2 -2.2 2.5 -6 9.7 -5.3 10.3 1.2 0.9 10.9 4.5 13.8 5.1 1.8 0.4 5.3 1.6 7.7 2.7 2.4 1 4.9 1.6 5.4 1.3 0.6 -0.3 1 -0.1 1 0.4 0 0.6 0.3 1 0.8 1 2.4 -0.4 3.6 0.8 6.3 6.6 1.8 3.6 3.5 6.5 4 6.5 0.5 0 0.9 1.2 0.9 2.8 -0.1 2.2 -1.1 3.3 -5.8 6.2 -8.9 5.4 -17.2 9 -20.1 8.8 -3.1 -0.2 -13 2.9 -15.1 4.8 -0.8 0.7 -6.4 2.6 -12.3 4.2 -6.4 1.8 -11.7 3.8 -13.1 5.1 -1.2 1.1 -2.7 2.1 -3.3 2.1 -1.7 0 -11.7 3.2 -12.9 4.2 -1.2 0.9 -10.4 19 -10.4 20.4 0 0.5 -1.3 2.3 -3 4.1 -1.8 1.9 -4.1 6.6 -6 12 -1.6 4.8 -3.4 9.7 -3.9 10.8 -1.4 3 -2.4 5.8 -2.8 7.8 -0.1 1 -1 3.2 -1.9 4.8 -0.8 1.7 -1.7 4.6 -2 6.6 -0.2 2 -0.9 4.2 -1.5 4.9 -1.1 1.3 -2.9 14 -3.3 23.4 -0.1 3 -0.6 7.1 -1 9 -1.6 7.7 4.5 24.1 10.3 27.8 1.4 0.9 3.1 2.2 3.8 2.8 0.6 0.6 2.5 1.7 4.2 2.4 1.7 0.7 3.1 1.6 3.1 2 0 0.8 10.8 2.1 21.5 2.6 3.9 0.2 8 0.6 9.1 0.9 1.5 0.5 3 -0.1 4.9 -1.9 2.1 -1.9 3.4 -2.4 5.6 -1.9 1.9 0.4 3.8 -0.1 5.6 -1.3 1.8 -1.2 4.7 -1.9 7.8 -2 7.6 -0.1 14.2 -1.2 17.3 -2.8 1.6 -0.8 5.3 -1.8 8.3 -2.1 3 -0.4 6.6 -1.5 8.1 -2.6 3.6 -2.5 4.8 -2.4 2 0.1 -1.1 1.1 -4.2 2.4 -6.9 3 -2.6 0.6 -6.1 1.9 -7.8 3 -3.4 2.1 -13.7 5.3 -15.7 4.8 -0.7 -0.2 -2.7 0.7 -4.3 1.8 -1.7 1.2 -3.6 1.9 -4.2 1.7 -0.7 -0.3 -1.3 0 -1.3 0.6 0 0.6 -0.8 1.1 -1.8 1.1 -1 0 -2.3 0.5 -2.9 1.1 -0.7 0.7 -7.5 1.3 -17.5 1.6 -8.9 0.2 -16.7 0.9 -17.2 1.4 -1.9 1.7 -11.9 1 -14.6 -1.1z"/>
  <path d="M172.3 399.3 c0.4 -0.3 1 -0.3 1.4 0 0.3 0.4 0 0.7 -0.7 0.7 -0.7 0 -1 -0.3 -0.7 -0.7z"/>
  <path d="M176 398.5 c0 -0.3 0.2 -0.5 0.5 -0.5 0.3 0 0.5 0.2 0.5 0.5 0 0.3 -0.2 0.5 -0.5 0.5 -0.3 0 -0.5 -0.2 -0.5 -0.5z"/>
  <path d="M178 397.5 c0 -0.3 0.2 -0.5 0.5 -0.5 0.3 0 0.5 0.2 0.5 0.5 0 0.3 -0.2 0.5 -0.5 0.5 -0.3 0 -0.5 -0.2 -0.5 -0.5z"/>
  <path d="M180 396.5 c0 -0.3 0.2 -0.5 0.5 -0.5 0.3 0 0.5 0.2 0.5 0.5 0 0.3 -0.2 0.5 -0.5 0.5 -0.3 0 -0.5 -0.2 -0.5 -0.5z"/>
  <path d="M182.5 395 c0.3 -0.5 0.8 -1 1.1 -1 0.3 0 0.2 0.5 -0.1 1 -0.3 0.6 -0.8 1 -1.1 1 -0.3 0 -0.2 -0.4 0.1 -1z"/>
  <path d="M187.2 393.1 c1.5 -1.2 4.4 -2.7 6.5 -3.5 4.3 -1.5 12.4 -6.6 16.5 -10.4 1.5 -1.4 3 -2.3 3.4 -2 0.7 0.7 -6.5 7.8 -7.9 7.8 -0.5 0 -2.4 1.3 -4.3 3 -1.8 1.6 -5.1 3.2 -7.1 3.6 -2.1 0.4 -4 1 -4.3 1.4 -0.3 0.4 -1.6 1.1 -3 1.5 -2.5 0.7 -2.5 0.7 0.2 -1.4z"/>
  <path d="M217 377.1 c1.4 -0.5 4 -1.6 5.9 -2.5 1.8 -1 3 -1.3 2.7 -0.7 -1 1.5 -6.7 4.1 -9 4 -1.8 -0.1 -1.8 -0.2 0.4 -0.8z"/>
  <path d="M227.8 371.9 c0.6 -0.7 1.2 -2.1 1.2 -3.1 0 -2.8 7.2 -23 9.5 -26.8 3.2 -5 6.6 -13.1 6 -14 -0.3 -0.5 -0.1 -1.1 0.5 -1.5 1.1 -0.7 4.3 -7.3 4.5 -9.1 0.1 -1.3 2.9 -8.2 6.5 -15.9 1.5 -3.3 3.1 -7.5 3.5 -9.2 0.4 -1.8 1.1 -3.5 1.6 -3.8 0.5 -0.4 0.9 -1.7 0.9 -3.1 0 -1.4 1.1 -4.6 2.4 -7.2 1.3 -2.6 2.9 -8.1 3.5 -12.2 1 -6.2 1.7 -8 4.1 -10.2 3.6 -3.5 6 -3.6 6 -0.4 0 1.4 -0.4 2.7 -0.9 3 -0.4 0.3 -1.1 2 -1.5 3.8 -0.3 1.8 -1.8 4.4 -3.1 5.8 -1.4 1.5 -3.4 5.6 -4.5 9.3 -1 3.7 -2.6 8.2 -3.5 10 -0.9 1.7 -2.3 4.8 -3 6.8 -0.7 2 -2.6 5.6 -4.1 8 -3.2 4.9 -5.2 9.6 -6.3 14.9 -0.5 1.9 -1.7 5.1 -2.8 7 -1.1 1.9 -3.3 6.8 -4.8 10.8 -1.5 4 -3.2 7.8 -3.8 8.5 -3.2 3.4 -4.8 9.3 -3.1 11 0.9 0.9 4.4 -1.6 4.4 -3 0 -0.7 0.4 -1.3 0.9 -1.3 1.1 0 5.4 -5.9 9.6 -13 1.7 -2.9 5.1 -7.7 7.6 -10.8 2.5 -3.2 5.3 -7 6.2 -8.7 1.4 -2.6 1.6 -2.7 1.7 -0.8 0 1.2 -1.8 4.3 -4.1 6.9 -2.2 2.5 -4.9 6.6 -6.1 9 -1.1 2.4 -2.4 4.4 -2.8 4.4 -0.4 0 -2.6 3.7 -4.8 8.3 -2.2 4.6 -4.8 8.9 -5.6 9.6 -1.6 1.3 -5.9 9.7 -6 11.6 -0.2 1.9 -2.6 3.7 -6.1 4.5 -0.5 0.1 -1.9 0.7 -3 1.2 -1.6 0.9 -1.8 0.8 -0.7 -0.3z"/>
  <path d="M947.5 363.7 c-1.3 -1.6 -1.2 -8.6 0.2 -11.8 0.6 -1.4 1.4 -4.1 1.7 -6 0.9 -5.7 4.7 -19.3 5.5 -19.9 1.1 -0.7 3 -6.7 2.4 -7.4 -0.3 -0.2 0.4 -1.8 1.6 -3.4 1.2 -1.7 2.1 -3.7 2.1 -4.5 0 -0.8 1.1 -2.6 2.5 -4.1 3.5 -3.8 3.1 -6.6 -0.5 -3.3 -1.2 1 -1.2 0.9 -0.1 -0.5 0.7 -1 1.9 -1.8 2.6 -1.8 1.1 0 5.5 -8.9 5.5 -11.3 0 -0.5 1.3 -3.6 3 -6.8 1.6 -3.3 2.9 -6.3 2.7 -6.7 -0.3 -1.2 2.6 -8.2 3.4 -8.2 0.5 0 1.5 -2.5 2.4 -6 0 -0.3 0.6 -1.4 1.2 -2.5 0.6 -1.1 1.4 -3.7 1.8 -5.8 0.4 -2 2 -5.4 3.5 -7.5 1.5 -2 3.9 -6.9 5.5 -10.7 1.5 -3.9 4 -9.6 5.6 -12.7 1.6 -3.2 2.9 -6.4 2.9 -7.2 0 -2.2 3.6 -10 5.4 -11.8 0.8 -0.9 2.2 -3.5 3 -5.7 1.4 -4.1 1.4 -4.1 -2.3 -3.5 -2 0.4 -4.7 1.1 -5.9 1.5 -1.3 0.5 -2.7 0.7 -3.1 0.5 -2 -1.2 -21 5.9 -22.6 8.3 -0.3 0.6 -2 1.1 -3.6 1.1 -1.7 0 -2.8 0.3 -2.6 0.8 0.5 0.8 -1.3 2.6 -2.9 2.9 -0.5 0.1 -2.1 0.4 -3.5 0.8 -2.3 0.6 -2.7 0.3 -3.3 -2.1 -0.7 -2.7 1.8 -7.8 3.7 -7.5 0.4 0.1 2.2 -0.9 3.8 -2.3 3.5 -3 3 -2.8 9.2 -3.1 2.7 -0.1 5.2 -0.7 5.6 -1.3 0.3 -0.6 3.8 -1.6 7.5 -2.2 3.8 -0.6 7.3 -1.3 7.7 -1.6 0.4 -0.2 2.7 -0.5 5.1 -0.5 2.3 -0.1 4.8 -0.6 5.5 -1.1 0.7 -0.5 2 -0.7 3 -0.4 1.4 0.4 2.5 -1 5.5 -7.2 6.2 -13 8.8 -18.8 8.8 -20 0 -0.7 0.4 -1.2 0.9 -1.2 0.5 0 1.5 -1.6 2.1 -3.6 0.7 -2 2.5 -6 4 -8.9 1.5 -2.8 3 -5.8 3.3 -6.6 0.5 -1.2 0.7 -1.2 1.6 0.1 1.8 2.5 1.2 5.1 -1.8 8.5 -1.7 1.9 -3.1 5 -3.5 7.6 -0.4 2.7 -2.1 6.2 -4.5 9.4 -2.1 2.7 -4.4 6.6 -5.1 8.5 -0.8 1.9 -2.6 5.4 -4.2 7.7 -1.6 2.4 -2.4 4.4 -1.8 4.8 0.5 0.3 3 -0.1 5.5 -1 2.5 -0.8 5.6 -1.3 6.8 -1 1.2 0.3 4.9 0.8 8.2 1 9.2 0.7 14.9 1.6 16.2 2.7 0.9 0.7 1.5 0.5 1.9 -0.6 0.7 -1.7 4.4 -2.2 4.4 -0.6 0 1.1 4.5 3.3 14.3 7.1 3.1 1.3 6.5 3.1 7.4 4.2 1.2 1.2 -0.5 0.7 -5.2 -1.7 -8.1 -4.1 -23 -6.8 -38.2 -7 -7.9 -0.1 -9.5 0.2 -11.5 1.9 -3.2 2.9 -7.4 4.9 -8.6 4.1 -0.6 -0.3 -1.3 -0.2 -1.7 0.4 -0.3 0.5 -1.4 1 -2.3 1 -0.9 0 -2.3 1.3 -3 2.8 -0.6 1.6 -2.1 3.8 -3.3 5 -1.1 1.3 -2.2 3 -2.4 4 -0.8 4.2 -5.9 16.9 -7.6 19.1 -1.1 1.3 -1.9 3 -1.9 3.8 0 2 -5.4 13.5 -7.1 15.3 -0.8 0.8 -2.6 4.9 -3.9 9 -1.3 4.1 -3.6 10 -5.2 13.1 -1.5 3.1 -2.8 6.7 -2.8 8 0 1.3 -1.2 4.9 -2.7 7.9 -1.4 3 -3.2 6.6 -3.8 8 -0.7 1.4 -1.5 4.2 -1.9 6.2 -0.4 2 -2.3 5.6 -4.2 7.9 -3.6 4.3 -6.4 9.9 -6.4 12.8 0 0.9 -1.4 5 -3.1 9.1 -3.3 8.1 -6.6 28.6 -4.8 30.5 1.4 1.5 13.6 -5.3 19.3 -10.9 2.8 -2.7 6.8 -5.9 8.8 -7.2 2 -1.3 4.2 -3.2 4.7 -4.3 0.6 -1 3.4 -3.4 6.3 -5.4 2.9 -1.9 6.9 -5.1 8.8 -7.1 1.9 -2 5.6 -5.2 8.1 -7.1 2.6 -1.9 5.3 -5 6 -6.7 0.7 -1.8 3.7 -6.6 6.6 -10.7 2.9 -4 5.3 -7.8 5.3 -8.3 0 -1 3.9 -5.9 9.8 -12.3 1.6 -1.6 4.1 -4.9 5.8 -7.2 1.6 -2.4 3.4 -4.3 4 -4.3 0.6 0 1.7 -0.7 2.4 -1.5 2 -2.4 8.9 -5.2 14.7 -5.9 4.4 -0.6 5.3 -0.4 6.2 1.2 1.2 2.3 1.7 13.1 0.6 15.7 -2.1 5.1 -6 9.8 -10 12.4 -2.4 1.5 -6.5 5.6 -9.1 9 -2.6 3.4 -5.8 7 -7.3 7.9 -1.4 0.9 -5.3 4 -8.6 6.9 -4.2 3.7 -6.8 5.3 -8.8 5.3 -2.7 0 -2.8 -0.2 -2.1 -3.2 0.3 -1.8 1.4 -4.3 2.2 -5.6 1.3 -2 2.1 -2.3 4.8 -1.7 5.9 1.1 19.8 -8 21.8 -14.3 0.3 -0.9 2.2 -2.8 4.2 -4.1 1.9 -1.4 4.8 -4.7 6.2 -7.4 1.5 -2.7 3.3 -5.9 3.9 -7.1 3 -5.1 0.3 -10.9 -5.5 -12 -4.3 -0.8 -5.5 -0.1 -14.2 8.4 -3.9 3.8 -7.5 7 -7.9 7 -1 0 -9.1 10.5 -11.5 15 -1 1.9 -2.7 4.4 -3.6 5.5 -0.9 1.1 -2.7 4.9 -4 8.5 -1.3 3.6 -3 7.2 -3.7 8.1 -2.2 2.7 -4.3 11.8 -4.3 19.2 0 6.3 0.2 6.9 3.3 9.7 3.7 3.4 5.3 3.6 8.5 1.5 1.2 -0.9 3.8 -1.8 5.9 -2.1 2 -0.2 4.9 -1.2 6.3 -2.2 1.4 -0.9 4.2 -2.4 6.2 -3.4 2 -0.9 4.3 -2.6 5 -3.7 0.7 -1.2 1.6 -2.1 2.1 -2.1 0.4 0 4.2 -2.4 8.5 -5.3 8.3 -5.7 11.2 -7.2 11.2 -5.7 0 1.6 -11.3 10.9 -14 11.5 -1.5 0.3 -5.2 3 -8.3 6 -3.1 2.9 -6.7 5.7 -7.9 6 -1.3 0.4 -4.8 1.9 -7.8 3.3 -6.8 3.1 -21 4.3 -21 1.7 0 -0.8 -0.4 -1.5 -0.9 -1.5 -1.1 0 -0.6 -18.2 0.6 -25.7 0.9 -5 0.8 -5.1 -1.1 -4.1 -1.1 0.6 -4.6 3.7 -7.8 6.9 -3.2 3.3 -6.2 5.9 -6.7 5.9 -0.5 0 -3.4 2.5 -6.4 5.5 -3 3 -6.2 5.5 -7 5.5 -0.8 0 -3.4 2.3 -5.8 5.1 -7 8.1 -8.9 9.9 -10.4 9.9 -0.8 0 -1.8 0.6 -2.2 1.4 -0.8 1.5 -8.6 4.6 -11.3 4.5 -0.8 0 -1.9 -0.5 -2.5 -1.2z"/>
  <path d="M813.3 358.5 c-1.7 -0.8 -3.6 -2.2 -4.1 -3.2 -2.2 -4.1 0.1 -23 3.4 -28.1 0.8 -1.3 2.6 -5.8 4 -10 1.4 -4.2 3.6 -8.8 4.9 -10.2 1.5 -1.6 2.7 -4.7 3.4 -8.5 0.6 -3.3 2.5 -8.8 4.1 -12.2 1.7 -3.4 3 -7.3 3 -8.7 0 -1.4 0.5 -2.6 1 -2.6 0.6 0 1 -0.5 1 -1.1 0 -1.7 5.9 -7.1 7 -6.4 2.4 1.5 0.6 6.2 -4.7 12.8 -1.3 1.6 -2.3 3.5 -2.3 4.4 0 0.8 -1 2.9 -2.2 4.6 -1.3 1.8 -2.1 3.2 -1.9 3.2 0.3 0 -0.3 1.1 -1.2 2.5 -0.9 1.4 -1.8 3.5 -2 4.5 -0.8 3.9 -7.6 18.7 -8.9 19.3 -0.5 0.2 -0.8 1.2 -0.8 2.3 0 1.1 -0.9 3.8 -1.9 6.2 -2.3 5 -5.1 17.2 -5.1 22.1 0 4 2.1 6.6 5.6 6.6 2.8 0 11.4 -3.8 11.4 -5 0 -0.5 2.4 -2.2 5.3 -3.9 2.8 -1.6 10 -7.7 16 -13.4 5.9 -5.8 10.7 -10.2 10.7 -9.8 0 0.4 -1.3 2 -3 3.6 -1.6 1.6 -3 3.5 -3 4.2 0 0.7 -0.4 1.3 -0.9 1.3 -1.1 0 -5 3.3 -14.7 12.4 -13.3 12.4 -18.7 15.4 -24.1 13.1z"/>
  <path d="M1078.1 357.2 c-0.7 -1.4 -0.8 -2.3 -0.1 -2.7 0.5 -0.3 1 -2.3 1 -4.4 0 -4.4 2.7 -14.1 3.9 -14.1 0.8 0 7.1 -14.5 7.1 -16.3 0 -0.5 0.8 -2.1 1.9 -3.5 1 -1.5 2.6 -5.3 3.5 -8.4 0.9 -3.2 1.9 -6.4 2.2 -7.2 0.3 -0.8 -0.1 -1.6 -1.1 -1.8 -1.4 -0.2 -1.2 -0.9 1.4 -3.8 1.7 -1.9 3.3 -4.7 3.6 -6.2 0.7 -3.2 3.5 -3.8 3.5 -0.8 0 1.1 -0.4 2 -0.8 2 -0.9 0 -5.3 7.3 -5.3 8.7 0 3.6 -4.9 19.4 -7.1 22.5 -2.1 3.1 -2.2 3.8 -0.5 3.8 2.1 0 7.2 -6.1 10.3 -12.2 1.5 -3.2 3.3 -5.8 3.9 -5.8 1.8 0 5.2 -4.1 7.2 -8.5 1 -2.2 4.1 -6.4 6.8 -9.2 2.8 -2.9 6.8 -7.3 9 -9.7 2.2 -2.5 6.7 -6.7 10 -9.4 3.3 -2.7 7.5 -6.3 9.4 -8.1 3.9 -3.7 13.3 -8.4 15.8 -7.9 2.6 0.5 6.5 6.9 5.8 9.3 -0.4 1.1 -1 3.5 -1.5 5.3 -1.1 4.5 -1.9 5.1 -3.6 2.7 -1.1 -1.5 -1.4 -3.4 -0.9 -7.2 0.6 -4.6 0.4 -5.3 -1.1 -5.3 -1 0 -2.5 0.6 -3.3 1.3 -0.9 0.8 -4.1 2.2 -7.2 3.1 -5.5 1.7 -11.9 6.2 -16.7 11.8 -1.3 1.6 -3.6 3.5 -5.2 4.5 -1.5 0.9 -3.7 3.3 -4.9 5.3 -1.1 2.1 -3.8 5.5 -5.9 7.7 -2.1 2.1 -4.4 5.3 -5.1 7 -0.7 1.7 -2.2 3.9 -3.2 4.9 -1.1 1 -3.4 4.3 -5.1 7.3 -1.8 3.1 -3.5 5.8 -4 5.9 -0.4 0.2 -0.8 0.8 -0.8 1.4 0 0.6 -1.5 3.1 -3.3 5.7 -1.9 2.6 -3.7 6 -4.1 7.6 -0.4 1.6 -1.8 4.2 -3.2 5.9 -1.3 1.7 -2.8 3.6 -3.3 4.2 -1.6 2 -2.8 4.9 -3.5 8.4 -0.3 1.9 -1.5 4.6 -2.5 5.9 -1.9 2.4 -1.9 2.4 -3 0.3z"/>
  <path d="M720 355.3 c-2.6 -0.9 -5 -3.5 -4.9 -5.2 0 -1 0.2 -1.2 0.6 -0.3 0.2 0.6 1.5 1.2 2.8 1.2 4.6 0 20.3 -10.5 24.8 -16.6 1.8 -2.4 3.9 -4.6 4.7 -4.9 2 -0.7 7 -5.5 15 -14.5 7.5 -8.5 17.4 -18.1 22 -21.5 3.9 -2.9 6.4 -2.3 5.5 1.3 -0.3 1.3 -0.9 3.8 -1.2 5.6 -0.3 1.7 -1 3.6 -1.5 4.2 -1.3 1.7 -5.8 17.5 -5.8 20.4 0 1.4 -0.6 3.4 -1.3 4.5 -2.1 3.1 -2.7 6.6 -1.5 8.9 1.5 2.9 2.5 3.4 8 4.1 3.7 0.5 5.5 0.3 7.4 -1 1.4 -0.9 3.5 -1.5 4.7 -1.3 1.7 0.2 1.3 0.7 -2.3 2.5 -2.5 1.2 -7.8 3.1 -11.9 4.4 -6.1 1.8 -7.5 2 -8.2 0.8 -1.4 -2.1 0 -14.8 2.2 -19.8 1 -2.4 1.9 -5.1 1.9 -6.1 0 -1 0.7 -3.7 1.6 -6.1 2.8 -7.5 2.8 -12.9 0 -12.9 -2.3 0 -13.9 9.6 -20.8 17.1 -3.7 4.1 -7.6 8.2 -8.7 9.3 -1 1 -3.8 3.7 -6.2 6 -2.4 2.3 -6.9 6.9 -10 10.2 -8.8 9.4 -12.3 11.4 -16.9 9.7z"/>
  <path d="M367.3 352.9 c-1.9 -1.2 -3.6 -3.4 -4.1 -5.2 -1.1 -4 0.1 -19.5 2.1 -26.4 1.8 -6.4 0.5 -7 -3.5 -1.6 -1.6 2 -2.8 3.2 -2.8 2.6 0 -0.6 2.3 -3.4 5.1 -6.4 7.2 -7.7 11.9 -13.4 11.9 -14.6 0 -2.2 5.6 -11 8.8 -13.7 1.8 -1.7 4 -4.1 4.7 -5.5 2.1 -4 14.8 -16.5 19.6 -19.3 5.4 -3.2 13.3 -3.3 15.5 -0.3 2 2.7 1.7 10.3 -0.6 15.4 -1.1 2.4 -2 4.9 -2 5.6 0 0.8 -1.4 2.4 -3 3.7 -1.7 1.3 -5.4 4.7 -8.3 7.7 -2.9 2.9 -6.2 6.3 -7.5 7.5 -1.3 1.1 -4.5 4.2 -7.1 6.7 -5.9 5.9 -10.8 8.9 -14.3 8.9 -2.4 0 -2.8 -0.4 -2.8 -2.9 0 -3.9 3.1 -6.1 7.6 -5.4 2.3 0.4 3.8 0 4.9 -1.1 0.9 -0.9 2.3 -1.6 3.1 -1.6 0.8 0 1.4 -0.4 1.4 -0.9 0 -0.5 1.1 -1.2 2.4 -1.5 1.3 -0.3 4.6 -3.2 7.3 -6.3 2.6 -3.1 5.9 -6.8 7.3 -8.2 1.3 -1.4 4.1 -5.9 6.2 -9.9 3.9 -7.5 4.9 -13.7 2.6 -16 -2.9 -2.9 -13.8 0.2 -15.4 4.3 -0.4 0.8 -1 1.5 -1.5 1.5 -1.3 0 -13.9 12.3 -13.9 13.6 0 0.7 -0.4 1.4 -0.8 1.6 -1.8 0.7 -11.1 13.6 -11.8 16.2 -0.7 2.8 -4.5 10.4 -8.4 16.8 -1.1 1.8 -2 4.7 -2 6.5 0 1.7 -0.5 3.3 -1.1 3.5 -1.7 0.6 0.1 13.8 2.2 15.9 3.5 3.5 8.2 4 14.6 1.3 3.2 -1.3 6.3 -2.4 6.9 -2.4 0.6 0 1.9 -0.9 2.9 -2 1 -1.1 2.6 -2 3.5 -2 1 0 3.4 -1.7 5.5 -3.9 2.1 -2.1 7.1 -5.5 11.1 -7.6 4.1 -2.1 9.9 -6.2 12.9 -9.2 3.1 -2.9 6 -5.3 6.4 -5.3 0.5 0 3.7 -2.2 7.1 -5 3.4 -2.7 6.4 -5 6.7 -5 0.8 0 -13 12.5 -15.6 14.1 -1.4 1 -5.5 4.4 -9 7.7 -3.5 3.3 -7.6 6.4 -9 6.7 -1.4 0.4 -4.9 2.8 -7.8 5.3 -6.8 6.2 -10.1 8.6 -14.3 10.4 -1.9 0.9 -6.1 2.8 -9.4 4.2 -8.2 3.8 -10.5 4 -14.3 1.5z"/>
  <path d="M859 349.1 c0 -5.3 0.3 -6.2 3.4 -9.6 2.2 -2.4 3.9 -5.6 4.7 -8.9 0.6 -2.8 1.5 -5.6 2 -6.1 1.3 -1.7 5.9 -16.6 5.4 -17.5 -0.3 -0.4 0.2 -1.3 1 -2 0.8 -0.7 1.5 -1.8 1.5 -2.4 0 -0.6 0.9 -2.8 2 -4.9 1.1 -2 2 -4.6 2 -5.7 0 -1.2 0.8 -3.2 1.7 -4.7 1 -1.6 1.8 -4.8 1.9 -8.2 0 -3.1 0.4 -7.2 0.7 -9.1 0.4 -1.9 0.9 -5.1 1.2 -7.2 0.6 -4.7 2.6 -8.9 3.9 -8.5 1.3 0.4 1.3 0.9 0.3 10.2 -0.5 3.9 -1.4 8.1 -2 9.4 -0.6 1.3 -1.2 2.9 -1.2 3.5 -0.1 0.6 -0.6 2.2 -1.2 3.6 -0.6 1.4 -1.6 4.5 -2.3 7 -1.3 4.8 -2.5 8 -4.5 12 -1.1 2.3 -2.9 7.6 -7 20.5 -0.8 2.8 -2.6 8.3 -3.9 12.3 -3 9 -1.1 10 2.7 1.5 1.3 -3.2 3.8 -7.5 5.5 -9.6 1.7 -2.1 3.4 -5.1 3.7 -6.8 0.4 -1.6 1.1 -2.9 1.6 -2.9 0.5 0 0.9 -0.7 0.9 -1.5 0 -0.8 0.5 -1.5 1 -1.5 0.6 0 1 -0.4 1 -1 0 -0.5 0.7 -1.8 1.5 -2.7 0.9 -1 2.7 -3.3 4.1 -5 1.4 -1.8 3.1 -3.3 3.7 -3.3 0.7 0 2.3 -0.9 3.7 -2 3.4 -2.7 5.5 -2.5 6.8 0.5 1.7 3.7 1.5 4.1 -0.7 1.4 -1.7 -2 -2.2 -2.2 -3.8 -1.1 -1 0.6 -2.5 1.5 -3.3 1.9 -2.5 1.1 -5 4.5 -8.5 11.3 -1.8 3.6 -4.3 7.6 -5.7 9 -4.2 4.4 -7.9 10 -11.6 17.3 -2 4 -4.8 8.6 -6.4 10.2 -1.5 1.7 -3.1 3.8 -3.4 4.8 -1.1 3.6 -2.4 1.5 -2.4 -4.2z"/>
  <path d="M1161 351.3 c-8 -2.4 -11.1 -6.8 -8.5 -12.1 0.7 -1.5 2.3 -5.6 3.4 -9.2 2 -5.9 4.8 -10.6 5.8 -9.6 0.3 0.2 0 1.2 -0.6 2.3 -0.6 1 -1.9 5.2 -3 9.3 -1.4 5.6 -1.6 8.3 -0.9 11 1.8 6.7 5.6 7.6 13.9 3.1 5.2 -2.9 20.9 -17.2 20.9 -19.1 0 -0.5 1.8 -3.9 4 -7.5 2.2 -3.6 4 -6.9 4 -7.4 0 -1.3 4.3 -9.5 5.4 -10.2 0.5 -0.4 0.7 -2.9 0.4 -5.6 -0.6 -6 -3.7 -10.5 -8.4 -12.2 -3.2 -1.2 -3.6 -1.1 -5.4 1.1 -1.1 1.3 -2.7 3.7 -3.5 5.3 -0.8 1.7 -3.1 4.1 -5 5.4 -1.9 1.2 -4.8 4.4 -6.4 7 -1.7 2.6 -4.4 5.7 -6.1 7 -1.7 1.2 -3.6 3.3 -4.2 4.7 -0.6 1.3 -1.5 2.4 -2 2.4 -1.6 0 2.1 -5.5 6.6 -9.8 2.5 -2.4 4.6 -4.9 4.6 -5.7 0 -1.1 4.6 -6.5 13.3 -15.7 3.1 -3.2 2.1 -3.9 -6 -3.7 -8.3 0.2 -10.8 -0.4 -11.7 -2.7 -0.9 -2.4 2.5 -3.2 9.9 -2.3 8.4 1.1 15.7 -0.3 19.9 -3.8 2.7 -2.2 3.4 -2.3 11 -1.7 7.3 0.5 8.3 0.4 10.5 -1.5 1.8 -1.6 3.6 -2.1 7.7 -2 3 0.1 6.7 -0.4 8.4 -1.1 2.3 -0.9 3.7 -1 5.3 -0.2 1.2 0.6 3.8 1.3 5.8 1.6 2 0.4 4.5 1.6 5.5 2.9 1 1.2 1.2 1.6 0.4 1 -0.8 -0.7 -2.5 -1.3 -4 -1.3 -1.4 -0.1 -3.6 -0.7 -4.9 -1.4 -1.7 -1 -3.3 -1.1 -5.5 -0.5 -1.7 0.5 -5.7 1 -8.8 1.1 -3.8 0.2 -5.8 0.7 -5.8 1.4 0 1.4 -3.6 2.3 -10 2.5 -2.5 0 -7.8 0.8 -11.7 1.7 -5.7 1.3 -7.3 2.1 -7.3 3.5 0 1 0.8 2.1 1.8 2.4 3.8 1.4 8.1 9.8 8.2 15.7 0 4.9 -1.8 11.3 -4.2 14.9 -1.1 1.5 -1.6 2.7 -1.1 2.7 0.4 0 0 0.5 -0.9 1.1 -1 0.5 -1.8 1.6 -1.8 2.3 0 0.8 -0.7 1.6 -1.5 2 -0.8 0.3 -1.5 1.2 -1.5 2.1 0 0.8 -0.4 1.5 -0.8 1.5 -0.5 0 -1.6 1.6 -2.5 3.5 -2.2 4.5 -14.3 17.2 -18.2 19 -1.6 0.8 -4.6 2.5 -6.5 3.8 -3.3 2.3 -3.7 2.3 -8 1z m49 -78.3 c1.2 -0.8 0.9 -1 -1.2 -1 -1.5 0 -3 0.5 -3.3 1 -0.8 1.3 2.5 1.3 4.5 0z"/>
  <path d="M325 342.5 c-1.2 -1.2 -1.9 -3.3 -1.9 -5.1 0.1 -2.2 0.3 -2.4 0.6 -0.8 0.2 1.2 1.3 3 2.4 4 1.8 1.6 2.1 1.7 5.5 0.1 1.9 -0.9 4.4 -1.7 5.6 -1.7 1.3 0 4.3 -2.3 7.7 -5.8 3.1 -3.3 7.1 -6.7 8.9 -7.6 2.4 -1.3 1.3 0.2 -4.3 5.6 -8.1 7.7 -10.9 9.7 -13.6 9.8 -0.9 0 -2.2 0.6 -2.8 1.4 -2 2.4 -5.8 2.5 -8.1 0.1z"/>
  <path d="M715 344.2 c0 -1.9 3.1 -10.9 5 -14.7 1.1 -2.1 2 -5.1 2 -6.6 0 -1.5 0.4 -2.9 0.9 -3.1 2 -0.7 8.2 -18.7 9.3 -26.7 0.7 -5.2 2 -10 3.4 -12.5 2.3 -4 2.3 -4 2.9 -1.3 1.3 4.9 -0.5 13.5 -4.5 21.5 -2.1 4.3 -5.9 12.8 -8.4 18.8 -2.6 6 -5.3 12.2 -6.1 13.7 -0.8 1.6 -1.8 4.6 -2.1 6.8 -0.6 3.4 -2.4 6.6 -2.4 4.1z"/>
  <path d="M905.6 342.1 c-2.2 -2.3 -2.9 -4.1 -3.3 -9 -0.4 -3.7 -0.1 -7.2 0.7 -9 0.6 -1.6 1.8 -6.9 2.5 -11.8 1.4 -8.8 1.4 -8.8 0.8 1.7 -0.7 13.8 -0.5 20.9 0.9 24.3 1 2.5 1.4 2.7 5.7 2.5 4.9 -0.3 8.3 -2.3 13.5 -7.5 1.7 -1.7 4.9 -3.8 7.2 -4.6 4.1 -1.3 4.1 -1.3 0.2 2.6 -2.1 2.2 -3.8 4.3 -3.8 4.8 0 0.5 -0.6 0.9 -1.4 0.9 -0.8 0 -1.6 0.7 -2 1.5 -0.3 0.8 -1.2 1.5 -2.1 1.5 -0.9 0 -2.6 0.7 -3.8 1.5 -1.2 0.8 -4 1.5 -6.2 1.6 -2.2 0.1 -4.5 0.6 -5.1 1.1 -0.6 0.4 -2.2 -0.4 -3.8 -2.1z"/>
  <path d="M292.1 341.8 c-1.4 -4 -0.1 -14.9 2.5 -20.6 1.3 -2.9 2.4 -6 2.4 -7 0 -0.9 0.5 -2.4 1 -3.2 0.7 -1.1 0.8 -0.5 0.4 2 -0.9 6 -2.7 12.4 -3.7 13.8 -0.9 1.2 -0.5 10.7 0.6 11.8 0.3 0.3 1.5 0 2.7 -0.6 1.8 -1 2.1 -1 1.5 0.2 -1.3 2.2 -4.8 5.8 -5.7 5.8 -0.5 0 -1.2 -1 -1.7 -2.2z"/>
  <path d="M803.8 339.3 c0.6 -0.2 1.8 -0.2 2.5 0 0.6 0.3 0.1 0.5 -1.3 0.5 -1.4 0 -1.9 -0.2 -1.2 -0.5z"/>
  <path d="M301 335.9 c0 -1.4 6.2 -10.6 8.1 -11.9 0.4 -0.3 3 -4 5.8 -8.2 2.9 -4.3 6.5 -8.6 8 -9.8 1.6 -1.1 3.2 -3.1 3.5 -4.5 0.5 -1.8 1.3 -2.5 3.1 -2.5 2.2 0 2.5 0.4 2.5 3.8 0 2.5 -0.3 3.3 -0.9 2.3 -0.7 -1.1 -1.3 -1 -3.5 0.5 -1.4 1.1 -2.8 2.7 -3.1 3.7 -0.4 0.9 -1.5 2.2 -2.6 2.8 -3.2 1.7 -5.9 4.2 -5.9 5.6 0 0.6 -1.8 3.2 -4 5.6 -2.2 2.4 -5.6 6.6 -7.5 9.3 -1.9 2.7 -3.5 4.2 -3.5 3.3z"/>
  <path d="M677.3 331.6 c1.2 -2.5 2.3 -4.3 2.5 -4.1 0.5 0.5 -2.8 7.4 -3.9 8 -0.4 0.3 0.2 -1.4 1.4 -3.9z"/>
  <path d="M323.1 331 c-0.1 -3.2 4.6 -14.6 5.7 -13.5 0.2 0.2 -0.6 2.1 -1.8 4.2 -1.2 2.1 -2.6 5.8 -3 8.3 -0.7 4.2 -0.8 4.3 -0.9 1z"/>
  <path d="M939.5 326 c0.3 -0.5 0.8 -1 1.1 -1 0.3 0 0.2 0.5 -0.1 1 -0.3 0.6 -0.8 1 -1.1 1 -0.3 0 -0.2 -0.4 0.1 -1z"/>
  <path d="M681 325.6 c0 -0.9 10.2 -20.1 10.9 -20.6 0.5 -0.3 1.6 -2.7 2.5 -5.5 1.4 -4.3 5.4 -12.6 16.5 -34.3 1.3 -2.6 3 -7.2 3.7 -10.2 1.2 -5.2 3.6 -13 5.4 -17.5 0.4 -1.1 1.2 -3.1 1.7 -4.5 0.6 -1.4 0.8 -4 0.6 -5.7 -0.4 -2.2 -0.1 -3.3 0.7 -3.3 0.9 0 1 -1.6 0.5 -6 -0.5 -4.1 -0.3 -7.1 0.5 -9.1 1.3 -3.1 0.5 -11.2 -2.2 -21.9 -2.1 -8.1 -11.2 -21 -15 -21 -0.9 0 -1.9 -0.4 -2.2 -0.9 -0.9 -1.4 -8.8 -5.3 -11.6 -5.6 -1.4 -0.2 -5.2 -1.1 -8.5 -2 -4.4 -1.1 -7.8 -1.4 -12.5 -0.8 -3.6 0.4 -6.9 0.6 -7.5 0.4 -2.2 -0.6 -15.5 4.4 -15.5 5.8 0 1.3 -5.6 1.9 -7.4 0.9 -1 -0.6 -1.6 -0.5 -1.6 0.2 0 0.6 -0.6 1 -1.2 0.9 -2.5 -0.3 -3.5 0.1 -6.4 2.6 -1.6 1.4 -3.5 2.5 -4.2 2.5 -1.9 0 -7.5 3 -6.8 3.7 0.8 0.9 -1.3 4.3 -2.7 4.3 -1.2 0 -5.7 6.2 -5.7 7.9 0 0.5 -1.4 2.1 -3.1 3.5 -4.5 3.8 -10.9 11.8 -10.9 13.6 0 0.9 -1.3 3.6 -2.8 6.1 -1.6 2.4 -4.1 6.9 -5.7 9.9 -1.6 3 -4 6.8 -5.2 8.3 -1.3 1.6 -3.2 5 -4.4 7.7 -1.9 4.5 -6.9 10.2 -6.9 8 0 -0.6 0.7 -1.3 1.5 -1.7 1.6 -0.6 4.5 -6.4 4.5 -9 0 -0.8 1.5 -3 3.4 -4.9 2.2 -2.3 3.7 -5 4.1 -7.5 0.4 -2.1 1.1 -4.1 1.6 -4.5 0.5 -0.3 0.9 -1.2 0.9 -2.1 0 -0.8 1.7 -3.6 3.8 -6.2 2.1 -2.5 5.3 -7.1 7 -10.1 1.7 -3 4.4 -6.8 5.9 -8.5 4.8 -5 6.7 -8.5 5.3 -9.9 -0.9 -0.8 -1.4 -0.8 -1.7 0.2 -0.5 1.2 -5.4 4.2 -6.9 4.2 -1.6 0 9.2 -8.6 11.7 -9.3 1.5 -0.4 3.4 -1.9 4.1 -3.5 2.6 -5.1 4.3 -7.5 7.6 -10.9 1.7 -1.9 3.2 -4 3.2 -4.7 0 -0.7 1.1 -1.9 2.5 -2.6 1.4 -0.7 2.5 -1.7 2.5 -2 0 -0.4 2.5 -3.3 5.5 -6.5 3 -3.1 5.8 -6.7 6.1 -8 0.4 -1.7 1.5 -2.5 4.1 -3 1.9 -0.3 5.3 -1.9 7.5 -3.6 2.3 -1.6 5 -2.9 6.2 -2.8 1.5 0 1.7 0.2 0.6 0.6 -0.8 0.4 -2.1 1.1 -2.8 1.7 -13.1 10.8 -27 25 -29 29.7 -1.1 2.4 -2.9 5.2 -4 6.3 -1.2 1 -1.9 2.2 -1.6 2.7 0.6 1 3 0.1 7.3 -2.8 1.9 -1.3 4.6 -2.3 6.1 -2.3 1.6 0 4.8 -1.1 7.1 -2.5 2.4 -1.4 5.3 -2.5 6.4 -2.5 1.2 0 2.6 -0.5 3.2 -1.1 1.4 -1.4 6.4 -2 19.6 -2.4 5.4 -0.2 10.1 -0.5 10.4 -0.8 1 -1.1 6.9 1.8 10.2 5 2 2 4.4 3.3 6 3.3 2.9 0.1 6.1 2.1 6.1 3.9 0 0.6 0.7 1.1 1.5 1.1 0.8 0 1.5 0.5 1.5 1.1 0 1.1 6.9 12.9 8.1 13.9 1 0.8 4.9 13.2 6 19.1 1.5 7.5 1.4 9 -1.1 20.9 -3.8 18.9 -5.2 24.4 -7.1 27.7 -1 1.8 -2.1 4.7 -2.4 6.3 -0.8 4.6 -3.4 12 -6.2 17.5 -1.4 2.8 -2.7 6.3 -2.9 7.9 -0.5 3.6 -4.1 11.2 -6.7 14.3 -1.1 1.2 -2.9 4.6 -4.1 7.5 -1.2 2.9 -4.3 8 -6.8 11.3 -2.5 3.3 -5.3 7.5 -6.2 9.3 -1.4 2.8 -2.6 4.1 -2.6 2.8z"/>
  <path d="M944.2 321.5 c1.2 -1.4 2.3 -2.3 2.5 -2.1 0.6 0.5 -2.9 4.6 -3.9 4.6 -0.4 0 0.2 -1.1 1.4 -2.5z"/>
  <path d="M861 320.2 c0.6 -1.3 1.4 -2.1 1.8 -1.8 0.3 0.4 -0.2 1.4 -1.2 2.4 -1.8 1.6 -1.8 1.6 -0.6 -0.6z"/>
  <path d="M1071.6 318.8 c1.6 -1.8 3.5 -3.7 4.2 -4.1 0.8 -0.5 2.4 -2 3.5 -3.4 2.7 -3 8.6 -6.7 9.4 -5.9 0.4 0.3 0.1 0.6 -0.6 0.6 -0.6 0 -4.6 3.6 -8.8 8 -4.2 4.4 -8.3 8 -9.1 8 -1.1 0 -0.7 -0.9 1.4 -3.2z"/>
  <path d="M948.8 317.5 c0.5 -1.1 2.1 -2.9 3.4 -4.1 1.2 -1.2 2.8 -3 3.5 -4 0.6 -1 1.2 -1.4 1.2 -0.8 0.1 0.7 -2 3.4 -4.5 6 -2.6 2.7 -4.2 4 -3.6 2.9z"/>
  <path d="M1163 318.5 c0 -0.3 0.2 -0.5 0.5 -0.5 0.3 0 0.5 0.2 0.5 0.5 0 0.3 -0.2 0.5 -0.5 0.5 -0.3 0 -0.5 -0.2 -0.5 -0.5z"/>
  <path d="M329 315 c0 -0.7 0.3 -1 0.7 -0.7 0.3 0.4 0.3 1 0 1.4 -0.4 0.3 -0.7 0 -0.7 -0.7z"/>
  <path d="M866 315.5 c0 -0.3 0.2 -0.5 0.5 -0.5 0.3 0 0.5 0.2 0.5 0.5 0 0.3 -0.2 0.5 -0.5 0.5 -0.3 0 -0.5 -0.2 -0.5 -0.5z"/>
  <path d="M269.5 310.5 c2 -3.4 9.4 -11.1 7.6 -8 -0.6 1.1 -3 4 -5.2 6.5 -3.2 3.4 -3.7 3.7 -2.4 1.5z"/>
  <path d="M330 311.5 c0 -0.3 0.2 -0.5 0.5 -0.5 0.3 0 0.5 0.2 0.5 0.5 0 0.3 -0.2 0.5 -0.5 0.5 -0.3 0 -0.5 -0.2 -0.5 -0.5z"/>
  <path d="M299 308 c0 -0.7 0.3 -1 0.7 -0.7 0.3 0.4 0.3 1 0 1.4 -0.4 0.3 -0.7 0 -0.7 -0.7z"/>
  <path d="M300 305.5 c0 -0.3 0.2 -0.5 0.5 -0.5 0.3 0 0.5 0.2 0.5 0.5 0 0.3 -0.2 0.5 -0.5 0.5 -0.3 0 -0.5 -0.2 -0.5 -0.5z"/>
  <path d="M959 305.5 c0 -0.3 0.2 -0.5 0.5 -0.5 0.3 0 0.5 0.2 0.5 0.5 0 0.3 -0.2 0.5 -0.5 0.5 -0.3 0 -0.5 -0.2 -0.5 -0.5z"/>
  <path d="M300 303.5 c0 -0.3 0.2 -0.5 0.5 -0.5 0.3 0 0.5 0.2 0.5 0.5 0 0.3 -0.2 0.5 -0.5 0.5 -0.3 0 -0.5 -0.2 -0.5 -0.5z"/>
  <path d="M1090.5 303 c0.3 -0.5 0.8 -1 1.1 -1 0.3 0 0.2 0.5 -0.1 1 -0.3 0.6 -0.8 1 -1.1 1 -0.3 0 -0.2 -0.4 0.1 -1z"/>
  <path d="M301 301 c0 -0.7 0.3 -1 0.7 -0.7 0.3 0.4 0.3 1 0 1.4 -0.4 0.3 -0.7 0 -0.7 -0.7z"/>
  <path d="M451 297.5 c2.4 -2.5 4.6 -4.5 4.8 -4.5 0.7 0 -2 3.2 -5.2 6.3 -4.7 4.5 -4.4 3.1 0.4 -1.8z"/>
  <path d="M278.1 299.9 c-0.2 -1.6 5.4 -10.2 9.2 -14.2 9.9 -10.6 14.9 -16.4 16 -18.6 0.7 -1.4 2.6 -2.9 4.2 -3.4 1.7 -0.6 4.1 -1.8 5.4 -2.8 5 -3.9 6.2 -1.7 3.8 7.2 -0.7 2.5 -2.4 6.4 -3.8 8.5 -1.4 2.1 -3.7 6.7 -5 10.1 -1.3 3.4 -2.5 6 -2.8 5.8 -0.2 -0.2 0.6 -2.7 1.8 -5.4 1.1 -2.7 2.1 -5.6 2.1 -6.4 0 -0.8 0.9 -2.6 2 -4 2.5 -3.1 2.7 -7.2 0.4 -6.3 -0.9 0.3 -2.8 0.9 -4.2 1.3 -2.4 0.6 -7.6 5.3 -15.9 14.3 -1.7 1.9 -4.6 4.9 -6.5 6.5 -1.8 1.7 -4.1 4.1 -5 5.5 -0.9 1.4 -1.7 2.2 -1.7 1.9z"/>
  <path d="M302 298 c0 -0.5 0.5 -1 1.1 -1 0.5 0 0.7 0.5 0.4 1 -0.3 0.6 -0.8 1 -1.1 1 -0.2 0 -0.4 -0.4 -0.4 -1z"/>
  <path d="M304 294.5 c0 -0.3 0.2 -0.5 0.5 -0.5 0.3 0 0.5 0.2 0.5 0.5 0 0.3 -0.2 0.5 -0.5 0.5 -0.3 0 -0.5 -0.2 -0.5 -0.5z"/>
  <path d="M458.7 288.9 c0.7 -0.7 1.5 -1 1.8 -0.7 0.3 0.3 -0.2 0.9 -1.2 1.2 -1.4 0.6 -1.5 0.5 -0.6 -0.5z"/>
  <path d="M56 281.5 c0 -0.3 0.2 -0.5 0.5 -0.5 0.3 0 0.5 0.2 0.5 0.5 0 0.3 -0.2 0.5 -0.5 0.5 -0.3 0 -0.5 -0.2 -0.5 -0.5z"/>
  <path d="M1106.3 280.7 c0.4 -0.9 0.2 -3 -0.4 -4.5 -0.6 -1.5 -1 -2.9 -1.1 -3.2 0 -0.3 -0.4 -1 -0.9 -1.6 -0.6 -0.8 -0.5 -1.7 0.5 -2.6 0.7 -0.8 1.6 -2.3 1.8 -3.4 0.4 -2.3 4.2 -2.8 5.9 -0.8 1.3 1.6 0.5 8.7 -1.1 9.2 -0.5 0.2 -1 1.2 -1 2.1 0 1 -1 2.9 -2.2 4.2 -1.5 1.7 -1.9 1.9 -1.5 0.6z"/>
  <path d="M1259 279.5 c0 -0.5 0.5 -1.7 1 -2.5 0.5 -0.8 1 -1 1 -0.5 0 0.6 -0.5 1.7 -1 2.5 -0.5 0.8 -1 1.1 -1 0.5z"/>
  <path d="M1258 273.9 c0 -0.5 0.5 -0.7 1 -0.4 0.6 0.3 1 0.8 1 1.1 0 0.2 -0.4 0.4 -1 0.4 -0.5 0 -1 -0.5 -1 -1.1z"/>
  <path d="M847 228.5 c0 -0.3 0.2 -0.5 0.5 -0.5 0.3 0 0.5 0.2 0.5 0.5 0 0.3 -0.2 0.5 -0.5 0.5 -0.3 0 -0.5 -0.2 -0.5 -0.5z"/>
  <path d="M848.3 223.3 c0.4 -2.3 2.5 -7.2 4.7 -10.9 2.3 -3.8 4.4 -7.6 4.9 -8.4 2.2 -4 3.7 -0.3 2.7 6.5 -0.5 3 -1.3 4.6 -3 5.5 -1.3 0.7 -3 2.3 -3.7 3.6 -0.7 1.3 -1.8 2.4 -2.6 2.4 -0.7 0 -1.3 0.9 -1.3 1.9 0 1.1 -0.5 2.3 -1.2 2.7 -0.8 0.5 -0.9 -0.4 -0.5 -3.3z"/>
  <path d="M1101 224.5 c0 -0.3 0.2 -0.5 0.5 -0.5 0.3 0 0.5 0.2 0.5 0.5 0 0.3 -0.2 0.5 -0.5 0.5 -0.3 0 -0.5 -0.2 -0.5 -0.5z"/>
  <path d="M1100 220.5 c0 -0.3 0.2 -0.5 0.5 -0.5 0.3 0 0.5 0.2 0.5 0.5 0 0.3 -0.2 0.5 -0.5 0.5 -0.3 0 -0.5 -0.2 -0.5 -0.5z"/>
  <path d="M1099 218.5 c0 -0.3 0.2 -0.5 0.5 -0.5 0.3 0 0.5 0.2 0.5 0.5 0 0.3 -0.2 0.5 -0.5 0.5 -0.3 0 -0.5 -0.2 -0.5 -0.5z"/>
  <path d="M1098 215.5 c0 -0.3 0.2 -0.5 0.5 -0.5 0.3 0 0.5 0.2 0.5 0.5 0 0.3 -0.2 0.5 -0.5 0.5 -0.3 0 -0.5 -0.2 -0.5 -0.5z"/>
  <path d="M1097 213.5 c0 -0.3 0.2 -0.5 0.5 -0.5 0.3 0 0.5 0.2 0.5 0.5 0 0.3 -0.2 0.5 -0.5 0.5 -0.3 0 -0.5 -0.2 -0.5 -0.5z"/>
  <path d="M1095 210.5 c0 -0.3 0.2 -0.5 0.5 -0.5 0.3 0 0.5 0.2 0.5 0.5 0 0.3 -0.2 0.5 -0.5 0.5 -0.3 0 -0.5 -0.2 -0.5 -0.5z"/>
  <path d="M1092.1 206.6 c-0.5 -1.3 -2 -2.6 -3.3 -3 -1.4 -0.5 -1.8 -0.9 -1 -1.3 0.7 -0.3 1.9 -0.2 2.7 0.1 1.8 0.6 4.9 6.6 3.5 6.6 -0.6 0 -1.5 -1.1 -1.9 -2.4z"/>
  <path d="M1085 201.5 c0 -0.3 0.2 -0.5 0.5 -0.5 0.3 0 0.5 0.2 0.5 0.5 0 0.3 -0.2 0.5 -0.5 0.5 -0.3 0 -0.5 -0.2 -0.5 -0.5z"/>
  <path d="M596 184.5 c0.7 -0.8 1.6 -1.2 2.1 -0.9 1.3 0.8 0.1 2.4 -1.8 2.4 -1.3 0 -1.3 -0.3 -0.3 -1.5z"/>
  <path d="M601 183.5 c0 -0.3 0.2 -0.5 0.5 -0.5 0.3 0 0.5 0.2 0.5 0.5 0 0.3 -0.2 0.5 -0.5 0.5 -0.3 0 -0.5 -0.2 -0.5 -0.5z"/>
  <path d="M288.5 146 c-1.9 -0.8 -1.9 -0.9 0.3 -0.9 1.2 -0.1 2.2 0.4 2.2 0.9 0 0.6 -0.1 1 -0.2 0.9 -0.2 0 -1.2 -0.4 -2.3 -0.9z"/>
  <path d="M284.3 144.3 c0.4 -0.3 1 -0.3 1.4 0 0.3 0.4 0 0.7 -0.7 0.7 -0.7 0 -1 -0.3 -0.7 -0.7z"/>
  <path d="M282 143.5 c0 -0.3 0.2 -0.5 0.5 -0.5 0.3 0 0.5 0.2 0.5 0.5 0 0.3 -0.2 0.5 -0.5 0.5 -0.3 0 -0.5 -0.2 -0.5 -0.5z"/>
  <path d="M280 142.5 c0 -0.3 0.2 -0.5 0.5 -0.5 0.3 0 0.5 0.2 0.5 0.5 0 0.3 -0.2 0.5 -0.5 0.5 -0.3 0 -0.5 -0.2 -0.5 -0.5z"/>
  <path d="M274.1 140 c-1.3 -1.1 -1.8 -2 -1.2 -2 0.6 0 2 0.9 3.1 2 2.6 2.6 1.2 2.5 -1.9 0z"/>
  <path d="M694.1 134.4 c-1.7 -2.7 -3.1 -5.5 -3.1 -6.1 0 -0.7 -0.4 -1.3 -1 -1.3 -0.5 0 -0.7 -0.6 -0.4 -1.3 0.2 -0.7 -0.5 -2.3 -1.6 -3.5 -1.9 -2 -2.3 -2.1 -4.3 -0.8 -1.2 0.8 -4.2 1.7 -6.7 2 -12.2 1.8 -11.7 1.7 -9.5 0.4 2.9 -1.7 14.4 -5.9 18.3 -6.5 7.8 -1.3 13.6 4.9 13.3 14.5 -0.1 7.8 -1.4 8.4 -5 2.6z"/>
  <path d="M263.5 137 c-0.4 -0.7 0.3 -0.8 2.2 -0.4 3.8 0.9 4.2 1.4 1 1.4 -1.4 0 -2.9 -0.5 -3.2 -1z"/>
  <path d="M261 135.5 c0 -0.3 0.2 -0.5 0.5 -0.5 0.3 0 0.5 0.2 0.5 0.5 0 0.3 -0.2 0.5 -0.5 0.5 -0.3 0 -0.5 -0.2 -0.5 -0.5z"/>
 </g>
</svg>